<?xml version="1.0" encoding="UTF-8"?>
<svg width="41px" height="65px" viewBox="0 0 41 65" version="1.1" xmlns="http://www.w3.org/2000/svg" xmlns:xlink="http://www.w3.org/1999/xlink">
    <!-- Generator: Sketch 50.2 (55047) - http://www.bohemiancoding.com/sketch -->
    <title>Fridge</title>
    <desc>Created with Sketch.</desc>
    <defs></defs>
    <g id="Page-1" stroke="none" stroke-width="1" fill="none" fill-rule="evenodd">
        <g id="desktop_mainpage" transform="translate(-616.000000, -2204.000000)" fill="#1A3966">
            <g id="Group-32" transform="translate(572.000000, 2143.000000)">
                <path d="M81.2727273,85.8870283 L81.2727273,118.028302 C81.2727273,120.395283 79.3221212,122.320755 76.9242424,122.320755 L52.0757576,122.320755 C49.6778788,122.320755 47.7272727,120.395283 47.7272727,118.028302 L47.7272727,85.8870283 L47.7272727,69.8735938 C47.7272727,67.0129919 49.6778788,64.6792453 52.0757576,64.6792453 L76.9242424,64.6792453 C79.3221212,64.6792453 81.2727273,67.0129919 81.2727273,69.8735938 L81.2727273,85.8870283 Z M51.2464394,96.0632075 L51.2464394,91.9669811 C51.2464394,90.9490566 52.0819697,90.1273585 53.1100758,90.1273585 C54.1412879,90.1273585 54.9737121,90.9490566 54.9737121,91.9669811 L54.9737121,96.0632075 C54.9737121,97.0811321 54.1412879,97.9058962 53.1100758,97.9058962 C52.0819697,97.9058962 51.2464394,97.0811321 51.2464394,96.0632075 Z M52.0757576,61 C47.6216667,61 44,64.575 44,68.9716981 L44,118.028302 C44,122.425 47.6216667,126 52.0757576,126 L76.9242424,126 C81.3752273,126 85,122.425 85,118.028302 L85,68.9716981 C85,64.575 81.3752273,61 76.9242424,61 L52.0757576,61 Z" id="Fridge"></path>
            </g>
        </g>
    </g>
</svg>