<?xml version="1.0" encoding="UTF-8"?>
<svg width="17px" height="17px" viewBox="0 0 17 17" version="1.1" xmlns="http://www.w3.org/2000/svg" xmlns:xlink="http://www.w3.org/1999/xlink">
    <!-- Generator: Sketch 50.2 (55047) - http://www.bohemiancoding.com/sketch -->
    <title>Selection</title>
    <desc>Created with Sketch.</desc>
    <defs></defs>
    <g id="Page-1" stroke="none" stroke-width="1" fill="none" fill-rule="evenodd">
        <g id="desktop_lakasok" transform="translate(-215.000000, -1826.000000)" fill="#50E3C2">
            <g id="Group-21" transform="translate(215.000000, 1817.000000)">
                <path d="M10.2951333,24.9599999 L8.58953329,24.9599999 C8.30179996,24.9599999 8.0695333,25.1931332 8.0695333,25.4799999 C8.0695333,25.7677332 8.30179996,25.9999999 8.58953329,25.9999999 L10.2951333,25.9999999 C10.5828666,25.9999999 10.8151333,25.7677332 10.8151333,25.4799999 C10.8151333,25.1931332 10.5828666,24.9599999 10.2951333,24.9599999 M12.8257999,9.87999995 C12.8257999,9.59313329 12.5935333,9.35999996 12.3057999,9.35999996 L10.6002,9.35999996 C10.3124666,9.35999996 10.0793333,9.59313329 10.0793333,9.87999995 C10.0793333,10.1677333 10.3124666,10.4 10.6002,10.4 L12.3057999,10.4 C12.5935333,10.4 12.8257999,10.1677333 12.8257999,9.87999995 M16.0575999,11.5257999 C16.1061333,11.5257999 16.1546666,11.5188666 16.2031999,11.5049999 C16.4787999,11.4252666 16.6373999,11.1366666 16.5576666,10.8610666 C16.3409999,10.1105333 15.7299999,9.55066662 14.9629999,9.39899996 C14.6821999,9.34699996 14.4083333,9.52726662 14.3528666,9.80979996 C14.2973999,10.0906 14.4811333,10.3644666 14.7627999,10.4199333 C15.1389333,10.4944666 15.4517999,10.7813333 15.5592666,11.1505333 C15.6242666,11.3784666 15.8322666,11.5257999 16.0575999,11.5257999 M16.1199999,21.5678666 C15.8322666,21.5678666 15.5999999,21.8001332 15.5999999,22.0878666 L15.5999999,23.7943332 C15.5999999,24.0811999 15.8322666,24.3143332 16.1199999,24.3143332 C16.4068666,24.3143332 16.6399999,24.0811999 16.6399999,23.7943332 L16.6399999,22.0878666 C16.6399999,21.8001332 16.4068666,21.5678666 16.1199999,21.5678666 M16.1199999,13.0381333 C15.8322666,13.0381333 15.5999999,13.2712666 15.5999999,13.5581333 L15.5999999,15.2637333 C15.5999999,15.5514666 15.8322666,15.7845999 16.1199999,15.7845999 C16.4068666,15.7845999 16.6399999,15.5514666 16.6399999,15.2637333 L16.6399999,13.5581333 C16.6399999,13.2712666 16.4068666,13.0381333 16.1199999,13.0381333 M16.1199999,17.3029999 C15.8322666,17.3029999 15.5999999,17.5361333 15.5999999,17.8229999 L15.5999999,19.5285999 C15.5999999,19.8163332 15.8322666,20.0485999 16.1199999,20.0485999 C16.4068666,20.0485999 16.6399999,19.8163332 16.6399999,19.5285999 L16.6399999,17.8229999 C16.6399999,17.5361333 16.4068666,17.3029999 16.1199999,17.3029999 M14.5599999,24.9599999 L12.8543999,24.9599999 C12.5666666,24.9599999 12.3343999,25.1931332 12.3343999,25.4799999 C12.3343999,25.7677332 12.5666666,25.9999999 12.8543999,25.9999999 L14.5755999,25.9999999 L14.5781999,25.4799999 L14.5781999,25.9999999 C14.8659333,25.9999999 15.0895333,25.7668665 15.0895333,25.4799999 C15.0895333,25.1931332 14.8468666,24.9599999 14.5599999,24.9599999 M0.519999998,22.3123332 C0.806866663,22.3123332 1.04,22.0800666 1.04,21.7923332 L1.04,20.0858666 C1.04,19.7989999 0.806866663,19.5658666 0.519999998,19.5658666 C0.232266666,19.5658666 0,19.7989999 0,20.0858666 L0,21.7923332 C0,22.0800666 0.232266666,22.3123332 0.519999998,22.3123332 M0.519999998,18.0474666 C0.806866663,18.0474666 1.04,17.8151999 1.04,17.5274666 L1.04,15.8218666 C1.04,15.5341333 0.806866663,15.3009999 0.519999998,15.3009999 C0.232266666,15.3009999 0,15.5341333 0,15.8218666 L0,17.5274666 C0,17.8151999 0.232266666,18.0474666 0.519999998,18.0474666 M8.56093329,9.87999995 C8.56093329,9.59313329 8.32779996,9.35999996 8.0409333,9.35999996 L6.3353333,9.35999996 C6.04759997,9.35999996 5.81533331,9.59313329 5.81533331,9.87999995 C5.81533331,10.1677333 6.04759997,10.4 6.3353333,10.4 L8.0409333,10.4 C8.32779996,10.4 8.56093329,10.1677333 8.56093329,9.87999995 M0.519999998,13.7834666 C0.806866663,13.7834666 1.04,13.5503333 1.04,13.2625999 L1.04,11.5569999 C1.04,11.2692666 0.806866663,11.0369999 0.519999998,11.0369999 C0.232266666,11.0369999 0,11.2692666 0,11.5569999 L0,13.2625999 C0,13.5503333 0.232266666,13.7834666 0.519999998,13.7834666 M4.29606665,9.87999995 C4.29606665,9.59313329 4.06379998,9.35999996 3.77606665,9.35999996 L2.07046666,9.35999996 C1.78359999,9.35999996 1.55566666,9.59313329 1.55566666,9.87999995 C1.55566666,10.1677333 1.79226666,10.4 2.07999999,10.4 L3.77606665,10.4 C4.06379998,10.4 4.29606665,10.1677333 4.29606665,9.87999995 M1.87113332,24.9391999 C1.49499999,24.8629332 1.18299999,24.5743332 1.07813333,24.2033999 C0.999266662,23.9269332 0.712399997,23.7648666 0.436799998,23.8454666 C0.160333333,23.9234666 -2.77555756e-17,24.2111999 0.0779999996,24.4876666 C0.291199999,25.2390666 0.898733329,25.8032665 1.66399999,25.9583999 C1.69953333,25.9653332 1.73419999,25.9687999 1.76799999,25.9687999 C2.01066666,25.9687999 2.22733332,25.7989332 2.27759999,25.5527999 C2.33393332,25.2711332 2.15279999,24.9963999 1.87113332,24.9391999 M6.55026664,25.4799999 C6.55026664,25.7677332 6.31799997,25.9999999 6.03026664,25.9999999 L4.32466665,25.9999999 C4.03693331,25.9999999 3.80466665,25.7677332 3.80466665,25.4799999 C3.80466665,25.1931332 4.03693331,24.9599999 4.32466665,24.9599999 L6.03026664,24.9599999 C6.31799997,24.9599999 6.55026664,25.1931332 6.55026664,25.4799999" id="Selection"></path>
            </g>
        </g>
    </g>
</svg>