<?xml version="1.0" encoding="UTF-8"?>
<svg width="51px" height="51px" viewBox="0 0 51 51" version="1.1" xmlns="http://www.w3.org/2000/svg" xmlns:xlink="http://www.w3.org/1999/xlink">
    <!-- Generator: Sketch 50.2 (55047) - http://www.bohemiancoding.com/sketch -->
    <title>Dollar</title>
    <desc>Created with Sketch.</desc>
    <defs></defs>
    <g id="Page-1" stroke="none" stroke-width="1" fill="none" fill-rule="evenodd">
        <g id="desktop_mainpage" transform="translate(-392.000000, -5875.000000)" fill="#50E3C2">
            <g id="Group-3" transform="translate(342.000000, 5825.000000)">
                <g id="Group-14-Copy-3">
                    <g id="number" transform="translate(20.625000, 20.625000)">
                        <path d="M59.3354821,60.109661 C59.3354821,61.8593531 58.0244114,63.3334089 56.219592,63.8607133 L56.219592,56.3586086 C58.0244114,56.8859131 59.3354821,58.3599688 59.3354821,60.109661 Z M53.3433857,53.0341935 C51.5409631,52.5044922 50.2274956,51.0328333 50.2274956,49.2807443 C50.2274956,47.5310522 51.5409631,46.0593933 53.3433857,45.529692 L53.3433857,53.0341935 Z M56.4041486,45.3043891 C58.0220146,45.3043891 59.3354821,46.4333001 59.3354821,47.8138791 C59.3354821,48.6096295 59.9802317,49.2543791 60.7735853,49.2543791 C61.5693357,49.2543791 62.2116884,48.6096295 62.2116884,47.8138791 C62.2116884,44.846593 59.6063249,42.4305797 56.4041486,42.4305797 L56.219592,42.4305797 L56.219592,40.3980606 C56.219592,39.6023102 55.5772392,38.9623543 54.7814888,38.9623543 C53.9881353,38.9623543 53.3433857,39.6023102 53.3433857,40.3980606 L53.3433857,42.5648027 C49.9326844,43.183187 47.3512893,45.9587261 47.3512893,49.2807443 C47.3512893,52.6051594 49.9326844,55.3783016 53.3433857,55.9990828 L53.3433857,64.0380794 C51.586503,63.8103797 50.2274956,62.5064996 50.2274956,60.9221893 C50.2274956,60.1264389 49.5851428,59.4840861 48.7893924,59.4840861 C47.9960388,59.4840861 47.3512893,60.1264389 47.3512893,60.9221893 C47.3512893,64.0812225 49.9973991,66.6530303 53.3433857,66.9118888 L53.3433857,69.1601234 C53.3433857,69.9558738 53.9881353,70.5982266 54.7814888,70.5982266 C55.5772392,70.5982266 56.219592,69.9558738 56.219592,69.1601234 L56.219592,66.8279995 C59.6302933,66.2072183 62.2116884,63.4340761 62.2116884,60.109661 C62.2116884,56.7852459 59.6302933,54.0121037 56.219592,53.3913225 L56.219592,45.3043891 L56.4041486,45.3043891 Z M54.7814888,77.3117714 C42.3586745,77.3117714 32.2512063,67.2043031 32.2512063,54.779092 C32.2512063,42.3562777 42.3586745,32.2488094 54.7814888,32.2488094 C67.2043031,32.2488094 77.3117714,42.3562777 77.3117714,54.779092 C77.3117714,67.2043031 67.2043031,77.3117714 54.7814888,77.3117714 Z M54.7814888,29.375 C40.7719674,29.375 29.375,40.7719674 29.375,54.779092 C29.375,68.7886134 40.7719674,80.1855808 54.7814888,80.1855808 C68.7910103,80.1855808 80.1879777,68.7886134 80.1879777,54.779092 C80.1879777,40.7719674 68.7910103,29.375 54.7814888,29.375 Z" id="Dollar"></path>
                    </g>
                </g>
            </g>
        </g>
    </g>
</svg>