<?xml version="1.0" encoding="UTF-8"?>
<svg width="19px" height="19px" viewBox="0 0 19 19" version="1.1" xmlns="http://www.w3.org/2000/svg" xmlns:xlink="http://www.w3.org/1999/xlink">
    <!-- Generator: Sketch 50.2 (55047) - http://www.bohemiancoding.com/sketch -->
    <title>Full screen</title>
    <desc>Created with Sketch.</desc>
    <defs></defs>
    <g id="Page-1" stroke="none" stroke-width="1" fill="none" fill-rule="evenodd">
        <g id="desktop_lakasok" transform="translate(-216.000000, -2022.000000)" fill="#50E3C2">
            <g id="Group-23" transform="translate(216.000000, 2014.000000)">
                <path d="M18.3835275,21.2324079 C18.0565204,21.2324079 17.7907654,21.4986197 17.7907654,21.8261889 L17.7907654,25.2938695 C17.7907654,25.579874 17.5586002,25.8134278 17.2720986,25.8134278 L13.8113561,25.8134278 C13.484349,25.8134278 13.2176061,26.0786499 13.2176061,26.4072087 C13.2176061,26.7347779 13.484349,27 13.8113561,27 L17.2720986,27 C18.2116265,27 18.9772775,26.2350122 18.9772775,25.2938695 L18.9772775,21.8261889 C18.9772775,21.4986197 18.7115225,21.2324079 18.3835275,21.2324079 M5.16493344,25.7669149 L1.70419093,25.7669149 C1.41768927,25.7669149 1.18552413,25.5333611 1.18552413,25.2473566 L1.18552413,21.779676 C1.18552413,21.4521069 0.919769135,21.1858951 0.592762063,21.1858951 C0.264767055,21.1858951 0,21.4521069 0,21.779676 L0,25.2473566 C0,26.1884994 0.764663062,26.9534872 1.70419093,26.9534872 L5.16493344,26.9534872 C5.49194052,26.9534872 5.75868344,26.688265 5.75868344,26.3606959 C5.75868344,26.0331267 5.49194052,25.7669149 5.16493344,25.7669149 M5.18864393,8 L1.72790141,8 C0.787385607,8 0.0227225458,8.76498776 0.0227225458,9.70712016 L0.0227225458,13.1738111 C0.0227225458,13.5013803 0.288477537,13.7675921 0.616472546,13.7675921 C0.943479617,13.7675921 1.20824667,13.5013803 1.20824667,13.1738111 L1.20824667,9.70712016 C1.20824667,9.42012605 1.44139975,9.18657222 1.72790141,9.18657222 L5.18864393,9.18657222 C5.515651,9.18657222 5.78140599,8.92135007 5.78140599,8.59378093 C5.78140599,8.26522215 5.515651,8 5.18864393,8 M19,9.75264337 L19,13.220324 C19,13.5478931 18.734245,13.8141049 18.40625,13.8141049 C18.0792429,13.8141049 17.8144759,13.5478931 17.8144759,13.220324 L17.8144759,9.75264337 C17.8144759,9.46663889 17.5813228,9.23308506 17.2948211,9.23308506 L13.8350666,9.23308506 C13.5070715,9.23308506 13.2413166,8.96687327 13.2413166,8.63930413 C13.2413166,8.31173499 13.5070715,8.04651284 13.8350666,8.04651284 L17.2948211,8.04651284 C18.2353369,8.04651284 19,8.8115006 19,9.75264337" id="Full-screen"></path>
            </g>
        </g>
    </g>
</svg>