<?xml version="1.0" encoding="UTF-8"?>
<svg width="22px" height="16px" viewBox="0 0 22 16" version="1.1" xmlns="http://www.w3.org/2000/svg" xmlns:xlink="http://www.w3.org/1999/xlink">
    <!-- Generator: Sketch 50.2 (55047) - http://www.bohemiancoding.com/sketch -->
    <title>HU Copy</title>
    <desc>Created with Sketch.</desc>
    <defs>
        <rect id="path-1" x="0" y="0" width="20.8" height="15.6" rx="1.3"></rect>
        <rect id="path-3" x="0" y="0" width="20.8" height="15.6"></rect>
    </defs>
    <g id="Page-3" stroke="none" stroke-width="1" fill="none" fill-rule="evenodd">
        <g id="inspect_lakasok_dialog" transform="translate(-1238.000000, -16.000000)">
            <g id="MENÜ">
                <g id="menu_secondary">
                    <g id="NYELV" transform="translate(1127.000000, 16.000000)">
                        <g id="GB" transform="translate(111.500000, 0.000000)">
                            <g id="United-Kingdom">
                                <mask id="mask-2" fill="white">
                                    <use xlink:href="#path-1"></use>
                                </mask>
                                <use id="Rectangle-77" fill="#FFFFFF" xlink:href="#path-1"></use>
                                <g id="GB-Symbol" mask="url(#mask-2)">
                                    <g id="UK">
                                        <mask id="mask-4" fill="white">
                                            <use xlink:href="#path-3"></use>
                                        </mask>
                                        <use id="Rectangle-77" fill="#FFFFFF" xlink:href="#path-3"></use>
                                        <g id="St-Andrew" mask="url(#mask-4)">
                                            <g transform="translate(-2.600000, -2.600000)">
                                                <rect id="Rectangle-77" fill="#00247D" x="2.6" y="2.6" width="20.8" height="15.6"></rect>
                                                <rect id="Rectangle-3" fill="#FFFFFF" transform="translate(12.806483, 10.049288) rotate(36.000000) translate(-12.806483, -10.049288) " x="-1.6064426" y="8.09928823" width="28.8258511" height="3.9"></rect>
                                                <rect id="Rectangle-3-Copy" fill="#FFFFFF" transform="translate(12.806483, 10.049288) scale(-1, 1) rotate(36.000000) translate(-12.806483, -10.049288) " x="-1.6064426" y="8.09928823" width="28.8258511" height="3.9"></rect>
                                            </g>
                                        </g>
                                        <g id="St-Patrick" mask="url(#mask-4)">
                                            <g transform="translate(-2.600000, -7.800000)">
                                                <g id="Group-2" transform="translate(1.300000, 6.500000)">
                                                    <rect id="Rectangle-2" fill="#CF142B" transform="translate(5.763707, 5.345856) rotate(36.000000) translate(-5.763707, -5.345856) " x="-0.88837409" y="4.69585639" width="13.3041628" height="1.3"></rect>
                                                    <rect id="Rectangle-2-Copy" fill="#CF142B" transform="translate(17.463707, 12.625857) rotate(36.000000) translate(-17.463707, -12.625857) " x="10.8116259" y="11.9758567" width="13.3041628" height="1.3"></rect>
                                                </g>
                                                <g id="Group-2-Copy" transform="translate(13.200861, 14.981813) rotate(-72.000000) translate(-13.200861, -14.981813) translate(0.850861, 5.881813)">
                                                    <rect id="Rectangle-2-Copy" fill="#CF142B" transform="translate(17.928761, 12.562748) rotate(36.000000) translate(-17.928761, -12.562748) " x="10.7147607" y="11.9127481" width="14.4280009" height="1.3"></rect>
                                                    <rect id="Rectangle-2" fill="#CF142B" transform="translate(6.543874, 5.482365) rotate(36.000000) translate(-6.543874, -5.482365) " x="-0.108207329" y="4.83236486" width="13.3041628" height="1.3"></rect>
                                                </g>
                                            </g>
                                        </g>
                                        <g id="St-George" mask="url(#mask-4)">
                                            <path d="M7.8,5.2 L7.8,0 L13,0 L13,5.2 L20.8,5.2 L20.8,10.4 L13,10.4 L13,15.6 L7.8,15.6 L7.8,10.4 L0,10.4 L0,5.2 L7.8,5.2 Z" id="Combined-Shape" fill="#FFFFFF"></path>
                                            <polygon id="Rectangle-112" fill="#CF142B" points="20.8 6.5 20.8 9.1 11.7 9.1 11.7 15.6 9.1 15.6 9.1 9.1 0 9.1 0 6.5 9.1 6.5 9.1 0 11.7 0 11.7 6.5"></polygon>
                                        </g>
                                    </g>
                                </g>
                                <g id="Overlay" mask="url(#mask-2)" stroke="#000000" stroke-opacity="0.1">
                                    <g>
                                        <rect stroke-width="1.3" style="mix-blend-mode: multiply;" x="0.65" y="0.65" width="19.5" height="14.3"></rect>
                                    </g>
                                </g>
                            </g>
                        </g>
                    </g>
                </g>
            </g>
        </g>
    </g>
</svg>