<?xml version="1.0" encoding="UTF-8"?>
<svg width="35px" height="41px" viewBox="0 0 35 41" version="1.1" xmlns="http://www.w3.org/2000/svg" xmlns:xlink="http://www.w3.org/1999/xlink">
    <!-- Generator: Sketch 50.2 (55047) - http://www.bohemiancoding.com/sketch -->
    <title>Location pin</title>
    <desc>Created with Sketch.</desc>
    <defs></defs>
    <g id="Page-1" stroke="none" stroke-width="1" fill="none" fill-rule="evenodd">
        <g id="desktop_lakasok" transform="translate(-274.000000, -3971.000000)" fill="#50E3C2">
            <g id="FOOTER" transform="translate(-5.000000, 3785.000000)">
                <g id="Group-6" transform="translate(279.000000, 186.000000)">
                    <path d="M34.4236953,39.7139758 C33.8520387,40.5184661 32.9309308,41 31.9566456,41 L3.0433544,41 C2.06906916,41 1.14796129,40.5184661 0.576304654,39.7139758 C-0.00104955802,38.8978822 -0.152984877,37.880666 0.158482527,36.9272676 L2.69200397,29.1898495 C3.10602772,27.9250979 4.26263533,27.0741946 5.57497665,27.0741946 L9.90323405,27.0741946 C10.5318664,27.0741946 11.0408498,27.5944059 11.0408498,28.2345172 C11.0408498,28.8765624 10.5318664,29.3967737 9.90323405,29.3967737 L5.57497665,29.3967737 C5.24831571,29.3967737 4.95773942,29.6075657 4.85518308,29.9247205 L2.32166163,37.6602047 C2.24379478,37.8980708 2.27987942,38.151408 2.42421797,38.3563983 C2.57045572,38.5613886 2.7964595,38.6774209 3.0433544,38.6774209 L31.9566456,38.6774209 C32.2035405,38.6774209 32.4295443,38.5613886 32.5738828,38.3563983 C32.7201206,38.151408 32.7562052,37.8980708 32.6783384,37.6602047 L30.1448169,29.9247205 C30.0403614,29.6075657 29.7516843,29.3967737 29.4250234,29.3967737 L25.096766,29.3967737 C24.4681336,29.3967737 23.9572511,28.8765624 23.9572511,28.2345172 C23.9572511,27.5944059 24.4681336,27.0741946 25.096766,27.0741946 L29.4250234,27.0741946 C30.7373647,27.0741946 31.8939723,27.9250979 32.307996,29.1917834 L34.8415175,36.9253337 C35.1529849,37.880666 35.0010496,38.8978822 34.4236953,39.7139758 M17.5,2.32257912 C22.1074385,2.32257912 25.8564425,6.13810669 25.8564425,10.8296778 C25.8564425,15.5231829 22.1074385,19.3387104 17.5,19.3387104 C12.8925615,19.3387104 9.14165826,15.5231829 9.14165826,10.8296778 C9.14165826,6.13810669 12.8925615,2.32257912 17.5,2.32257912 M16.3604851,21.5955379 L16.3604851,33.2703174 C16.3604851,33.9123626 16.8713676,34.4325739 17.5,34.4325739 C18.1286324,34.4325739 18.6376157,33.9123626 18.6376157,33.2703174 L18.6376157,21.5955379 C23.9686462,21.0153766 28.1335731,16.4108297 28.1335731,10.8296778 C28.1335731,4.85981793 23.3647033,0 17.5,0 C11.6352967,0 6.86452767,4.85981793 6.86452767,10.8296778 C6.86452767,16.4108297 11.0313538,21.0153766 16.3604851,21.5955379" id="Location-pin"></path>
                </g>
            </g>
        </g>
    </g>
</svg>