<?xml version="1.0" encoding="UTF-8"?>
<svg width="41px" height="29px" viewBox="0 0 41 29" version="1.1" xmlns="http://www.w3.org/2000/svg" xmlns:xlink="http://www.w3.org/1999/xlink">
    <!-- Generator: Sketch 50.2 (55047) - http://www.bohemiancoding.com/sketch -->
    <title>Mail</title>
    <desc>Created with Sketch.</desc>
    <defs></defs>
    <g id="Page-1" stroke="none" stroke-width="1" fill="none" fill-rule="evenodd">
        <g id="desktop_lakasok" transform="translate(-278.000000, -4175.000000)" fill="#50E3C2">
            <g id="FOOTER" transform="translate(-5.000000, 3785.000000)">
                <g id="Group-4" transform="translate(283.000000, 388.000000)">
                    <path d="M34.9812255,9.57052632 C35.3544979,10.08375 35.2365206,10.7992105 34.7143261,11.1674342 L22.342186,19.9323026 C21.8045191,20.3157895 21.1701495,20.5065789 20.537714,20.5065789 C19.9091467,20.5065789 19.2786452,20.3176974 18.7409783,19.9399342 L6.28760791,11.1693421 C5.76734752,10.8030263 5.64550215,10.0875658 6.01684042,9.57243421 C6.39011274,9.05730263 7.1153828,8.93710526 7.63564319,9.30723684 L20.0870796,18.0759211 C20.355913,18.2648026 20.717581,18.2667105 20.9883485,18.0740132 L33.3624228,9.30914474 C33.8826831,8.93710526 34.6079532,9.05921053 34.9812255,9.57052632 Z M38.6810699,26.0394737 C38.6810699,27.5123684 37.4645502,28.7124342 35.973395,28.7124342 L5.02853908,28.7124342 C3.53544979,28.7124342 2.32086419,27.5123684 2.32086419,26.0394737 L2.32086419,6.96052632 C2.32086419,5.48763158 3.53544979,4.28947368 5.02853908,4.28947368 L35.973395,4.28947368 C37.4645502,4.28947368 38.6810699,5.48763158 38.6810699,6.96052632 L38.6810699,26.0394737 Z M35.973395,2 L5.02853908,2 C2.25510637,2 0,4.22651316 0,6.96052632 L0,26.0394737 C0,28.7753947 2.25510637,31 5.02853908,31 L35.973395,31 C38.7448936,31 41,28.7753947 41,26.0394737 L41,6.96052632 C41,4.22651316 38.7448936,2 35.973395,2 Z" id="Mail"></path>
                </g>
            </g>
        </g>
    </g>
</svg>