<?xml version="1.0" encoding="UTF-8"?>
<svg width="16px" height="20px" viewBox="0 0 16 20" version="1.1" xmlns="http://www.w3.org/2000/svg" xmlns:xlink="http://www.w3.org/1999/xlink">
    <!-- Generator: Sketch 50.2 (55047) - http://www.bohemiancoding.com/sketch -->
    <title>Rain drop</title>
    <desc>Created with Sketch.</desc>
    <defs></defs>
    <g id="Page-1" stroke="none" stroke-width="1" fill="none" fill-rule="evenodd">
        <g id="desktop_lakasok" transform="translate(-215.000000, -1879.000000)" fill="#50E3C2">
            <g id="Group-13" transform="translate(215.000000, 1871.000000)">
                <path d="M12.5753489,23.9953935 C9.94491216,26.6424163 5.66562357,26.6432999 3.03430886,23.9953935 C1.75684376,22.7098734 1.05270148,21.0046818 1.05270148,19.1943514 C1.05270148,17.3849046 1.75684376,15.679713 3.03430886,14.3941929 L7.80438988,9.5931508 L12.5753489,14.3941929 C13.8466681,15.6735283 14.5464205,17.3778364 14.5464205,19.1943514 C14.5464205,21.01175 13.8466681,22.716058 12.5753489,23.9953935 M13.3207564,13.6440853 L8.17753261,8.46843115 C7.97910847,8.2705229 7.63054927,8.2705229 7.43212513,8.46843115 L2.28977937,13.6440853 C0.813012153,15.1301642 0,17.101295 0,19.1943514 C0,21.2882914 0.813012153,23.2594222 2.28977937,24.7455011 C3.81044573,26.275756 5.80785679,27.0399999 7.80526786,27.0399999 C9.80267893,27.0399999 11.80009,26.275756 13.3207564,24.7455011 C14.7904997,23.2656068 15.5999999,21.294476 15.5999999,19.1943514 C15.5999999,17.0942268 14.7904997,15.123096 13.3207564,13.6440853" id="Rain-drop"></path>
            </g>
        </g>
    </g>
</svg>