<?xml version="1.0" encoding="UTF-8"?>
<svg width="40px" height="65px" viewBox="0 0 40 65" version="1.1" xmlns="http://www.w3.org/2000/svg" xmlns:xlink="http://www.w3.org/1999/xlink">
    <!-- Generator: Sketch 50.2 (55047) - http://www.bohemiancoding.com/sketch -->
    <title>Lightning</title>
    <desc>Created with Sketch.</desc>
    <defs></defs>
    <g id="Page-1" stroke="none" stroke-width="1" fill="none" fill-rule="evenodd">
        <g id="desktop_mainpage" transform="translate(-154.000000, -2204.000000)" fill="#1A3966">
            <g id="Group-33" transform="translate(117.000000, 2143.000000)">
                <path d="M53.4616088,120.060805 L55.6956074,95.9084862 C55.7422138,95.3933676 55.5682167,94.8813152 55.2171154,94.5011085 C54.862907,94.1178357 54.3626653,93.9001368 53.840674,93.9001368 L41.2538474,93.9001368 L48.4654061,65.5992736 C48.6052253,65.0596255 49.0961457,64.6794188 49.6647434,64.6794188 L65.9738652,64.6794188 C66.5082848,64.6794188 66.818994,64.9829709 66.9588131,65.1638757 C67.0986322,65.3417142 67.3099144,65.7188547 67.1638811,66.2278409 L61.9315395,84.606538 C61.7730778,85.1645832 61.8880402,85.7563564 62.2422486,86.21935 C62.5933499,86.6762111 63.1433051,86.9460352 63.7274382,86.9460352 L71.9767654,86.9460352 L53.4616088,120.060805 Z M76.7399362,84.1711401 C76.4043704,83.6100288 75.7953805,83.2666163 75.1366772,83.2666163 L66.1851474,83.2666163 L70.7525714,67.2243502 C71.1782429,65.7372518 70.8768551,64.1734987 69.9322994,62.9408934 C68.9846365,61.7082881 67.5429462,61 65.9738652,61 L49.6647434,61 C47.3872455,61 45.4080284,62.5208265 44.848752,64.7008821 L37.0561672,95.2921836 C36.9163481,95.8440964 37.0406317,96.4236049 37.3948401,96.8743337 C37.7459415,97.315864 38.2896824,97.5795556 38.8644943,97.5795556 L51.7962079,97.5795556 L49.4783179,122.657861 C49.3416059,124.114298 50.2395552,125.435822 51.6563888,125.865088 C51.967098,125.96014 52.2778071,126 52.5854091,126 C53.6915336,126 54.726195,125.420492 55.2854714,124.414784 L76.7679,85.9985848 C77.0879304,85.4252087 77.0755021,84.7353177 76.7399362,84.1711401 Z" id="Lightning"></path>
            </g>
        </g>
    </g>
</svg>