<?xml version="1.0" encoding="UTF-8"?>
<svg width="22px" height="19px" viewBox="0 0 22 19" version="1.1" xmlns="http://www.w3.org/2000/svg" xmlns:xlink="http://www.w3.org/1999/xlink">
    <!-- Generator: Sketch 50.2 (55047) - http://www.bohemiancoding.com/sketch -->
    <title>Kitchen utilities</title>
    <desc>Created with Sketch.</desc>
    <defs></defs>
    <g id="Page-1" stroke="none" stroke-width="1" fill="none" fill-rule="evenodd">
        <g id="desktop_lakasok" transform="translate(-214.000000, -1934.000000)" fill="#50E3C2">
            <g id="Group-14" transform="translate(214.000000, 1926.000000)">
                <path d="M11.6959455,13.5991754 L11.6959455,8.59830861 C11.6959455,8.26824143 11.9641875,7.99999952 12.2952518,7.99999952 C12.625319,7.99999952 12.8925637,8.26824143 12.8925637,8.59830861 L12.8925637,13.5991754 C12.8925637,13.9302398 12.625319,14.1974845 12.2952518,14.1974845 C11.9641875,14.1974845 11.6959455,13.9302398 11.6959455,13.5991754 Z M15.641794,8.59830861 L15.641794,14.5155855 C15.641794,15.5376969 14.8091472,16.3703437 13.7870358,16.3703437 L12.8925637,16.3703437 L12.8925637,25.8016893 C12.8925637,26.1327537 12.625319,26.3999984 12.2952518,26.3999984 C11.9641875,26.3999984 11.6959455,26.1327537 11.6959455,25.8016893 L11.6959455,16.3703437 L10.8024706,16.3703437 C9.77936209,16.3703437 8.94671527,15.5376969 8.94671527,14.5155855 L8.94671527,8.59830861 C8.94671527,8.26824143 9.21595436,7.99999952 9.54602154,7.99999952 C9.87608872,7.99999952 10.1443306,8.26824143 10.1443306,8.59830861 L10.1443306,14.5155855 C10.1443306,14.8785597 10.4384993,15.1737255 10.8024706,15.1737255 L13.7870358,15.1737255 C14.15001,15.1737255 14.4451758,14.8785597 14.4451758,14.5155855 L14.4451758,8.59830861 C14.4451758,8.26824143 14.7124205,7.99999952 15.0424877,7.99999952 C15.3735521,7.99999952 15.641794,8.26824143 15.641794,8.59830861 Z M19.9436364,17.9139812 L18.2484273,17.9139812 L18.2484273,11.81422 C18.2484273,10.7572072 18.9683925,9.86472952 19.9436364,9.60147352 L19.9436364,17.9139812 Z M20.5409483,8.3250808 C18.6163874,8.3250808 17.0528063,9.89065625 17.0528063,11.81422 L17.0528063,18.5122902 C17.0528063,18.8423574 17.320051,19.1105993 17.6511154,19.1105993 L19.9436364,19.1105993 L19.9436364,25.7627992 C19.9436364,26.0928664 20.2098839,26.3611083 20.5409483,26.3611083 C20.8720126,26.3611083 21.1392574,26.0928664 21.1392574,25.7627992 L21.1392574,8.92438707 C21.1392574,8.5933227 20.8720126,8.3250808 20.5409483,8.3250808 Z M3.93687382,16.3783212 C2.42514618,16.3783212 1.195621,14.7668753 1.195621,12.7874694 C1.195621,10.8080635 2.42514618,9.1966177 3.93687382,9.1966177 C5.44860145,9.1966177 6.67812663,10.8080635 6.67812663,12.7874694 C6.67812663,14.7668753 5.44860145,16.3783212 3.93687382,16.3783212 Z M3.93687382,7.99999952 C1.766009,7.99999952 0,10.1479292 0,12.7874694 C0,15.1797086 1.45089954,17.1680892 3.33756754,17.5200943 L3.33756754,25.8016893 C3.33756754,26.1327537 3.60680664,26.3999984 3.93687382,26.3999984 C4.266941,26.3999984 4.53518291,26.1327537 4.53518291,25.8016893 L4.53518291,17.5200943 C6.42384527,17.1680892 7.87474482,15.1797086 7.87474482,12.7874694 C7.87474482,10.1479292 6.10773863,7.99999952 3.93687382,7.99999952 Z" id="Kitchen-utilities"></path>
            </g>
        </g>
    </g>
</svg>