<?xml version="1.0" encoding="UTF-8"?>
<svg width="82px" height="69px" viewBox="0 0 82 69" version="1.1" xmlns="http://www.w3.org/2000/svg" xmlns:xlink="http://www.w3.org/1999/xlink">
    <!-- Generator: Sketch 50.2 (55047) - http://www.bohemiancoding.com/sketch -->
    <title>Ac</title>
    <desc>Created with Sketch.</desc>
    <defs></defs>
    <g id="Page-1" stroke="none" stroke-width="1" fill="none" fill-rule="evenodd">
        <g id="desktop_mainpage" transform="translate(-919.000000, -2029.000000)" fill="#50E3C2">
            <g id="Group-34" transform="translate(765.000000, 1891.000000)">
                <path d="M231.358491,166.813187 C231.358491,167.647253 230.662264,168.32967 229.811321,168.32967 L160.188679,168.32967 C159.337736,168.32967 158.641509,167.647253 158.641509,166.813187 L158.641509,144.065934 C158.641509,143.231868 159.337736,142.549451 160.188679,142.549451 L229.811321,142.549451 C230.662264,142.549451 231.358491,143.231868 231.358491,144.065934 L231.358491,166.813187 Z M229.811321,138 C233.215094,138 236,140.72967 236,144.065934 L236,166.813187 C236,170.149451 233.215094,172.879121 229.811321,172.879121 L160.188679,172.879121 C156.784906,172.879121 154,170.149451 154,166.813187 L154,144.065934 C154,140.72967 156.784906,138 160.188679,138 L229.811321,138 Z M226.0985,159.952615 C226.0985,161.199923 225.05416,162.227341 223.777745,162.227341 L166.223028,162.227341 C164.946613,162.227341 163.902274,161.199923 163.902274,159.952615 C163.902274,158.701516 164.946613,157.674099 166.223028,157.674099 L223.777745,157.674099 C225.05416,157.674099 226.0985,158.701516 226.0985,159.952615 Z M197.319594,181.978022 L197.319594,204.725275 C197.319594,205.983956 196.279123,207 194.99884,207 C193.718557,207 192.681953,205.983956 192.681953,204.725275 L192.681953,181.978022 C192.681953,180.719341 193.718557,179.703297 194.99884,179.703297 C196.279123,179.703297 197.319594,180.719341 197.319594,181.978022 Z M219.799972,202.866445 C220.627708,203.825621 220.554217,205.315566 219.575632,206.123093 C219.123085,206.502214 218.581575,206.687984 218.043934,206.687984 C217.41733,206.687984 216.798462,206.430181 216.349783,205.918368 C211.131953,199.875181 208.308368,192.012214 208.308368,183.667764 L208.308368,181.976885 C208.308368,180.718203 209.34884,179.705951 210.629123,179.705951 C211.909406,179.705951 212.949877,180.718203 212.949877,181.976885 L212.949877,183.667764 C212.949877,190.833148 215.444689,197.83172 219.799972,202.866445 Z M177.05283,183.670038 L177.05283,181.979159 C177.05283,180.724269 178.093302,179.704434 179.373585,179.704434 C180.653868,179.704434 181.690472,180.724269 181.690472,181.979159 L181.690472,183.670038 C181.690472,192.010698 178.870755,199.873665 173.649057,205.91306 C173.204245,206.432456 172.585377,206.686467 171.958774,206.686467 C171.421132,206.686467 170.875755,206.496907 170.423208,206.125368 C169.444623,205.314049 169.375,203.824104 170.202736,202.864929 C174.554151,197.826412 177.05283,190.835423 177.05283,183.670038 Z" id="Ac"></path>
            </g>
        </g>
    </g>
</svg>