<?xml version="1.0" encoding="UTF-8"?>
<svg width="74px" height="74px" viewBox="0 0 74 74" version="1.1" xmlns="http://www.w3.org/2000/svg" xmlns:xlink="http://www.w3.org/1999/xlink">
    <!-- Generator: Sketch 50.2 (55047) - http://www.bohemiancoding.com/sketch -->
    <title>Group 40</title>
    <desc>Created with Sketch.</desc>
    <defs></defs>
    <g id="Page-1" stroke="none" stroke-width="1" fill="none" fill-rule="evenodd">
        <g id="desktop_mainpage" transform="translate(-467.000000, -3807.000000)" fill="#50E3C2">
            <g id="Group-40" transform="translate(467.000000, 3807.000000)">
                <rect id="Rectangle-4" fill-opacity="0.1" x="3" y="4" width="68" height="68"></rect>
                <path d="M71.020783,51.0328294 C69.7574619,51.0328294 68.730775,52.0595164 68.730775,53.3228375 L68.730775,66.6964845 C68.730775,67.799505 67.8338551,68.7002415 66.7270179,68.7002415 L53.3571876,68.7002415 C52.0938665,68.7002415 51.0633629,69.7231118 51.0633629,70.9902496 C51.0633629,72.2535707 52.0938665,73.2764409 53.3571876,73.2764409 L66.7270179,73.2764409 C70.3566807,73.2764409 73.3146077,70.3261472 73.3146077,66.6964845 L73.3146077,53.3228375 C73.3146077,52.0595164 72.2879208,51.0328294 71.020783,51.0328294 M19.9536035,68.5208576 L6.58377315,68.5208576 C5.47693592,68.5208576 4.5800161,67.6201211 4.5800161,66.5171005 L4.5800161,53.1434535 C4.5800161,51.8801324 3.55332916,50.8534454 2.29000805,50.8534454 C1.02287026,50.8534454 0,51.8801324 0,53.1434535 L0,66.5171005 C0,70.1467633 2.95411039,73.097057 6.58377315,73.097057 L19.9536035,73.097057 C21.2169246,73.097057 22.2474282,72.0741867 22.2474282,70.8108656 C22.2474282,69.5475445 21.2169246,68.5208576 19.9536035,68.5208576 M20.0452038,0 L6.67537347,0 C3.04189403,0 0.0877836419,2.95029371 0.0877836419,6.58377315 L0.0877836419,19.9536035 C0.0877836419,21.2169246 1.11447058,22.2436115 2.38160837,22.2436115 C3.64492948,22.2436115 4.66779974,21.2169246 4.66779974,19.9536035 L4.66779974,6.58377315 C4.66779974,5.47693592 5.56853624,4.57619942 6.67537347,4.57619942 L20.0452038,4.57619942 C21.3085249,4.57619942 22.3352119,3.55332916 22.3352119,2.29000805 C22.3352119,1.02287026 21.3085249,0 20.0452038,0 M73.4023914,6.75934043 L73.4023914,20.1329874 C73.4023914,21.3963086 72.3757044,22.4229955 71.1085667,22.4229955 C69.8452455,22.4229955 68.8223753,21.3963086 68.8223753,20.1329874 L68.8223753,6.75934043 C68.8223753,5.65631989 67.9216388,4.75558339 66.8148016,4.75558339 L53.4487879,4.75558339 C52.1816501,4.75558339 51.1549632,3.72889644 51.1549632,2.46557533 C51.1549632,1.20225423 52.1816501,0.179383964 53.4487879,0.179383964 L66.8148016,0.179383964 C70.448281,0.179383964 73.4023914,3.12967767 73.4023914,6.75934043" id="Full-screen"></path>
            </g>
        </g>
    </g>
</svg>