<?xml version="1.0" encoding="UTF-8"?>
<svg width="69px" height="82px" viewBox="0 0 69 82" version="1.1" xmlns="http://www.w3.org/2000/svg" xmlns:xlink="http://www.w3.org/1999/xlink">
    <!-- Generator: Sketch 50.2 (55047) - http://www.bohemiancoding.com/sketch -->
    <title>Group 29</title>
    <desc>Created with Sketch.</desc>
    <defs></defs>
    <g id="Page-1" stroke="none" stroke-width="1" fill="none" fill-rule="evenodd">
        <g id="desktop_mainpage" transform="translate(-1032.000000, -3799.000000)" fill="#50E3C2">
            <g id="Group-29" transform="translate(1032.000000, 3799.000000)">
                <path d="M14.5937365,40.9063357 L42.3110598,40.9063357 C43.5887814,40.9063357 44.6201953,39.8710733 44.6201953,38.5972002 C44.6201953,37.3233271 43.5887814,36.2919132 42.3110598,36.2919132 L14.5937365,36.2919132 C13.3160148,36.2919132 12.284601,37.3233271 12.284601,38.5972002 C12.284601,39.8710733 13.3160148,40.9063357 14.5937365,40.9063357 M32.6550248,50.6624333 L14.5937365,50.6624333 C13.3160148,50.6624333 12.284601,51.6976957 12.284601,52.9715688 C12.284601,54.2454419 13.3160148,55.2768557 14.5937365,55.2768557 L32.6550248,55.2768557 C33.9327464,55.2768557 34.9641603,54.2454419 34.9641603,52.9715688 C34.9641603,51.6976957 33.9327464,50.6624333 32.6550248,50.6624333 M14.5937365,26.5319671 L32.6550248,26.5319671 C33.9327464,26.5319671 34.9641603,25.4967047 34.9641603,24.2228316 C34.9641603,22.9489585 33.9327464,21.9136961 32.6550248,21.9136961 L14.5937365,21.9136961 C13.3160148,21.9136961 12.284601,22.9489585 12.284601,24.2228316 C12.284601,25.4967047 13.3160148,26.5319671 14.5937365,26.5319671 M54.1761678,64.6365517 C54.1761678,63.1625535 52.9754173,61.961803 51.4975706,61.961803 C50.0197239,61.961803 48.8189734,63.1625535 48.8189734,64.6365517 C48.8189734,66.1105499 50.0197239,67.3113003 51.4975706,67.3113003 C52.9754173,67.3113003 54.1761678,66.1105499 54.1761678,64.6365517 M58.7944388,64.6365517 C58.7944388,68.6582961 55.519315,71.9295714 51.4975706,71.9295714 C47.4719777,71.9295714 44.1968538,68.6582961 44.1968538,64.6365517 C44.1968538,60.6148073 47.4719777,57.343532 51.4975706,57.343532 C55.519315,57.343532 58.7944388,60.6148073 58.7944388,64.6365517 M63.8899312,64.6365517 C63.8899312,64.3710011 63.8783855,64.1092991 63.8591427,63.8475971 L62.0464714,63.0932795 C61.1343628,62.7084235 60.433925,61.9925915 60.0567662,61.0727859 C59.6873046,60.1529802 59.683456,59.1754462 60.0375235,58.3018233 L60.7725983,56.4737576 C60.4262279,56.0812046 60.0567662,55.71944 59.6680618,55.3769183 L57.893876,56.1004474 C57.0048588,56.4737576 56.0042334,56.4660605 55.0844278,56.0927503 C55.0805792,56.0889017 55.0728821,56.0889017 55.0690335,56.0850532 C54.1492279,55.7155915 53.4295473,55.0151537 53.04854,54.1261365 L52.2826767,52.3327079 C51.7708183,52.2942224 51.2397171,52.3019195 50.7278588,52.3365565 L50.0081782,54.060711 C49.6156252,54.9882138 48.8767018,55.7078944 47.9261077,56.0850532 C47.9222591,56.0850532 47.9184105,56.0889017 47.9107134,56.0889017 C46.9986049,56.4583634 46.0056766,56.462212 45.1166595,56.104296 L43.3963535,55.4192524 C42.9999519,55.7694713 42.6227931,56.1466301 42.2725742,56.5468803 L42.9345264,58.1517294 C43.3193823,59.0792322 43.3232309,60.1106461 42.9422235,61.0535431 C42.553519,62.0118343 41.8261413,62.7584548 40.8870929,63.158705 L39.2553038,63.8591427 C39.2322124,64.1131476 39.2245153,64.3748497 39.2245153,64.6365517 C39.2245153,64.9097994 39.236061,65.1830471 39.2553038,65.4524462 L40.8909415,66.1336412 C41.8299899,66.5261943 42.553519,67.2651176 42.9422235,68.2118632 C43.3270794,69.1663059 43.3347765,70.1784769 42.9691634,71.0828883 L42.2995141,72.753163 C42.649733,73.1534132 43.0230432,73.530572 43.4232934,73.8807909 L45.1051138,73.1918988 C45.9402511,72.8339828 46.8985424,72.8185885 47.7914081,73.138019 C47.8414394,73.1534132 47.8876221,73.172656 47.9338048,73.1880502 C48.8882475,73.5613605 49.6310194,74.2771925 50.0197239,75.1969981 L50.7663443,76.9365469 C51.2820513,76.978881 51.8093039,76.978881 52.3250108,76.9403954 L53.0562371,75.1739068 C53.4333959,74.2617982 54.1607736,73.5459662 55.0959734,73.172656 C55.1113677,73.1688074 55.1229134,73.1611103 55.1383076,73.1572618 C56.0350219,72.7993457 57.0048588,72.7954972 57.8823303,73.1457161 L59.6988502,73.8730938 C60.0875547,73.530572 60.4570164,73.1649589 60.7995382,72.7724058 L60.0567662,70.9751287 C59.6950017,70.1053543 59.6911531,69.1239717 60.0490691,68.2195603 C60.0490691,68.2195603 60.0567662,68.2080146 60.0567662,68.2080146 C60.4185308,67.2805119 61.11512,66.5569827 62.0156829,66.1721268 L63.8629913,65.3870207 C63.8822341,65.1407129 63.8899312,64.886708 63.8899312,64.6365517 M68.5082022,64.6365517 C68.5082022,65.5640545 68.4158368,66.4684659 68.2734401,67.357483 C68.1464377,68.1387406 67.6268822,68.8006927 66.8995045,69.112426 L64.6750373,70.0591716 L65.5871458,72.2605475 C65.891182,73.0033194 65.7911194,73.8461538 65.3254438,74.4965604 C64.2439987,75.9974984 62.9393371,77.3060086 61.438399,78.3874537 C60.7995382,78.8531294 59.9720979,78.960889 59.229326,78.6607014 L56.985616,77.7601385 L56.0735075,79.9538173 C55.7656227,80.6927407 55.099822,81.2199933 54.3147159,81.3469957 C53.4141531,81.4970895 52.498196,81.5856064 51.555299,81.5856064 C50.6085534,81.5856064 49.6848992,81.493241 48.7804878,81.3431472 C48.0069274,81.2122961 47.3526723,80.6965892 47.040939,79.9730601 L46.1018906,77.7755328 L43.9274547,78.6683985 C43.1962284,78.9685861 42.3495454,78.8723722 41.7029874,78.4066965 C40.1828066,77.3175542 38.8627508,75.9936499 37.7774571,74.4773176 C37.3194785,73.8384567 37.219416,73.0071679 37.515755,72.2720931 L38.389378,70.0938086 L36.2457305,69.2009429 C35.5106557,68.8930582 34.9834031,68.2349545 34.8564006,67.4459999 C34.7024583,66.5300428 34.6062443,65.5948429 34.6062443,64.6365517 C34.6062443,63.6975032 34.6986097,62.7853947 34.844855,61.8809833 C34.975706,61.1035743 35.4914129,60.4454707 36.2187906,60.1337374 L38.3778323,59.2139318 L37.4888151,57.0587386 C37.1886275,56.3236638 37.2848415,55.4885265 37.7466686,54.8419685 C38.8281137,53.3217877 40.144321,51.9978833 41.6568047,50.9048925 C42.3033627,50.4430654 43.1308029,50.3353057 43.8658777,50.6316448 L46.0672536,51.5129648 L46.9793621,49.3269832 C47.2872468,48.595757 47.9453505,48.0685044 48.726608,47.9376533 C50.5238851,47.6374657 52.4443162,47.62592 54.2454419,47.914562 C55.0305479,48.0415644 55.6963487,48.5572714 56.008082,49.2923462 L56.950979,51.4975706 L59.1677491,50.5931592 C59.8951268,50.289123 60.7379612,50.3930341 61.3845192,50.8471641 C62.8854573,51.9170635 64.1978159,53.2255737 65.2869582,54.7265118 C65.7526339,55.3692211 65.856545,56.2082071 65.5602059,56.9432819 L64.659643,59.1792948 L66.868716,60.0991004 C67.6037908,60.4031366 68.1310434,61.0650888 68.2618945,61.8501948 C68.4119883,62.7623034 68.5082022,63.6859576 68.5082022,64.6365517 M27.8366287,68.6467504 C27.8366287,69.9206235 26.8013662,70.9558859 25.5274931,70.9558859 L12.2615096,70.9558859 C5.49959109,70.9558859 0,65.4562948 0,58.6943763 L0,12.2615096 C0,5.49959109 5.49959109,0 12.2615096,0 L35.1488911,0 C37.5388464,0 39.786405,0.927502766 41.4759225,2.62086881 L55.0690335,16.2139799 C56.758551,17.8996488 57.6899023,20.1433588 57.6899023,22.5371626 L57.6899023,38.7934767 C57.6899023,40.0673498 56.6546399,41.1026122 55.3807668,41.1026122 C54.1030452,41.1026122 53.0716313,40.0673498 53.0716313,38.7934767 L53.0716313,22.5371626 C53.0716313,21.3825949 52.6213499,20.2973012 51.8016068,19.4775581 L38.2084957,5.88059845 C37.3926011,5.0647039 36.3073075,4.61442248 35.1488911,4.61442248 L12.2615096,4.61442248 C8.04348872,4.61442248 4.61827103,8.04733728 4.61827103,12.2615096 L4.61827103,58.6943763 C4.61827103,62.9085486 8.04348872,66.3376149 12.2615096,66.3376149 L25.5274931,66.3376149 C26.8013662,66.3376149 27.8366287,67.3728773 27.8366287,68.6467504" id="Config-file"></path>
                <path d="M15,1 L30,1 C43.8071187,1 55,12.1928813 55,26 L55,44 C55,57.8071187 43.8071187,69 30,69 L10,69 C7.23857625,69 5,66.7614237 5,64 L5,11 C5,5.4771525 9.4771525,1 15,1 Z" id="Rectangle-5" fill-opacity="0.1"></path>
            </g>
        </g>
    </g>
</svg>