<?xml version="1.0" encoding="UTF-8"?>
<svg width="43px" height="86px" viewBox="0 0 43 86" version="1.1" xmlns="http://www.w3.org/2000/svg" xmlns:xlink="http://www.w3.org/1999/xlink">
    <!-- Generator: Sketch 50.2 (55047) - http://www.bohemiancoding.com/sketch -->
    <title>Shape</title>
    <desc>Created with Sketch.</desc>
    <defs></defs>
    <g id="Page-1" stroke="none" stroke-width="1" fill="none" fill-rule="evenodd" fill-opacity="0.6">
        <g id="desktop_mainpage" transform="translate(-365.000000, -2175.000000)" fill="#50E3C2" fill-rule="nonzero">
            <g id="Asset-4" transform="translate(385.292940, 2217.181724) rotate(-120.000000) translate(-385.292940, -2217.181724) translate(356.792940, 2180.181724)">
                <path d="M56.5285115,72.6080529 C49.3335376,63.4615471 48.7099732,52.4268886 46.935213,41.3677086 C45.5441847,32.8097179 39.1646412,22.3145316 30.8904212,24.9138067 C31.0822872,25.4778004 31.2741532,26.0172726 31.4420359,26.5567448 C32.2574663,29.0088911 33.0249302,31.4610374 33.6724778,34.0357911 C34.3200255,36.6105447 34.9435899,38.9400837 35.5191878,41.2451013 C36.0947857,43.5501188 36.6943668,45.8306149 37.3179312,47.9149393 C37.485814,48.42989 37.6297134,48.9448408 37.7975962,49.4597915 C37.9654789,49.9747422 38.1333616,50.44065 38.2772611,50.9310793 C38.5890433,51.9119378 38.9727752,52.819232 39.2845574,53.7020047 C39.929234,55.2903517 40.6660295,56.8379539 41.4910161,58.3365612 L42.066614,59.2928983 C42.2344967,59.6116773 42.4503459,59.8568919 42.6422119,60.1511495 C42.8340779,60.4454071 43.3617093,61.2055724 43.721458,61.6224373 C44.0812067,62.0393022 44.4169721,62.4071241 44.6807879,62.7504246 L45.472235,63.51059 C45.9039334,63.9274549 46.1197826,64.1726695 46.1197826,64.1726695 L45.3523188,63.6822402 L44.3929889,63.0937251 L43.1698433,62.137388 C42.6815935,61.732498 42.2171118,61.2985328 41.7788151,60.8377505 C41.2356599,60.3193637 40.7380936,59.7531939 40.2918538,59.1457695 C39.1765962,57.7311891 38.1816657,56.2217093 37.3179312,54.6338203 C36.321148,52.7630521 35.4400348,50.8302407 34.6797741,48.8467549 C33.8643438,46.7379091 33.0728966,44.5064559 32.2814495,42.1769169 C31.4900024,39.8473779 30.8424547,37.4687959 30.1229574,35.0411711 C29.40346,32.6135462 28.6599793,30.1368784 27.844549,27.6847321 C27.7246327,27.2923887 27.6047165,26.9000453 27.460817,26.5077018 C26.7653029,24.5950277 25.997839,22.6823536 25.0624924,20.8432438 C24.4868945,19.6662136 23.9352798,18.3910975 23.2877322,17.3857175 C22.7718493,16.3030415 22.2035416,15.2473105 21.5849217,14.2224487 C20.2209918,12.2192822 18.6621189,10.362522 16.9321719,8.68059801 C15.4272105,7.16734983 13.7713216,5.8194853 11.9916231,4.65907803 C10.4681035,3.69589964 8.86271588,2.87519226 7.19497389,2.2069317 L6.21166079,1.69198097 L5.1803812,1.34868048 L3.40562097,0.784686826 C2.61592446,0.549105144 1.81554828,0.352704091 1.00729634,0.196171707 L0,0 L3.18977176,1.49580926 L4.79664926,2.45214633 L5.70801262,2.9425756 L6.64335922,3.53109072 C8.06716631,4.39971516 9.43684682,5.35789591 10.7444943,6.40010192 L11.7997572,7.35643899 L12.3513718,7.8223468 L12.85502,8.36181899 L13.9342661,9.44076338 C14.2940148,9.80858533 14.605797,10.2254502 14.9655457,10.6177936 C16.3887826,12.3127973 17.6722759,14.125407 18.8028651,16.037037 C20.0057771,18.1025919 21.0869484,20.2397647 22.0406033,22.4371389 C23.6595944,25.4845117 23.713371,29.150074 22.1845028,32.2457243 C9.95304721,51.495073 43.529592,76.8257446 56.5285115,72.6080529 Z" id="Shape"></path>
            </g>
        </g>
    </g>
</svg>