<?xml version="1.0" encoding="UTF-8"?>
<svg width="192px" height="214px" viewBox="0 0 192 214" version="1.1" xmlns="http://www.w3.org/2000/svg" xmlns:xlink="http://www.w3.org/1999/xlink">
    <!-- Generator: Sketch 50.2 (55047) - http://www.bohemiancoding.com/sketch -->
    <title>Asset 3</title>
    <desc>Created with Sketch.</desc>
    <defs></defs>
    <g id="Page-1" stroke="none" stroke-width="1" fill="none" fill-rule="evenodd" fill-opacity="0.6">
        <g id="desktop_mainpage" transform="translate(-40.000000, -2639.000000)" fill="#50E3C2" fill-rule="nonzero">
            <g id="Asset-3" transform="translate(40.000000, 2639.000000)">
                <path d="M21.1834058,22.270223 C38.2511222,32.2356799 58.2647731,35.3703542 75.4727721,45.3825973 C112.180052,66.6235243 96.4684012,96.8473983 87.069467,107.655007 C87.069467,108.59073 87.069467,109.479668 87.3032714,110.368605 C87.4246666,112.75829 87.3307658,115.154057 87.0227062,117.526891 L89.3607495,114.579362 L91.979358,111.397901 L94.6914883,108.263227 C96.5151621,106.157849 98.3855968,104.192829 100.256031,102.227809 L111.198074,90.7184084 C114.658378,86.9755138 117.9784,83.2794053 120.877574,79.5832969 C122.373921,77.805422 123.589704,75.8871885 124.945769,74.1560997 C126.301834,72.4250109 127.096769,70.8810669 128.031986,69.4774814 C116.9029,43.5579362 143.32279,14.7844338 145.847877,0 C145.847877,0 151.225376,31.0192392 144.772377,44.8211631 C140.536793,53.4892006 135.478988,61.7302085 129.668617,69.4306952 C128.733399,71.3021425 127.564378,73.1268037 126.442117,75.0450372 C125.319856,76.9632707 123.963791,78.8815042 122.514204,80.7997376 C119.755313,84.6362046 116.482052,88.4258854 113.162031,92.3559248 L113.162031,92.5898557 C134.531747,77.1972016 167.872245,92.5898557 182.18107,90.8119808 C182.18107,90.8119808 154.12455,105.222125 139.161073,103.163533 C129.320592,101.673258 119.654821,99.1967279 110.309618,95.7713161 L102.781118,104.146043 C101.004205,106.204635 99.1805315,108.216441 97.4503794,110.275033 L94.8785318,113.409707 L92.4002058,116.68474 C89.1146515,120.918957 86.2487316,125.463037 83.8429672,130.252733 L90.2024451,132.404897 C110.356379,139.609969 159.034441,161.552689 180.684722,190.045474 C180.684722,190.045474 159.969658,151.914735 91.8390754,129.784871 C110.075813,101.713161 204.345721,159.8216 190.644787,214 C191.767048,209.648885 173.623831,195.519458 170.444092,193.367293 C161.379204,187.877798 151.566349,183.73305 141.312072,181.062527 C122.607726,175.307827 85.1990324,164.079143 89.0801843,137.64495 L89.0801843,137.083516 C87.5564795,136.576017 85.9920389,136.200348 84.4040976,135.960647 L82.4869021,135.960647 L80.75675,135.960647 C79.5409675,138.767818 78.4654676,141.528203 77.5302502,144.288588 C75.9541434,148.892315 74.6273255,153.577737 73.5555765,158.324443 C72.5735983,163.003061 71.9657071,167.213817 71.3110549,171.284215 C70.6564028,175.354613 69.9082289,179.144294 69.0665333,182.419327 C68.3528453,185.265158 67.4146863,188.04987 66.2608813,190.747267 C65.491514,192.476769 64.6008346,194.149651 63.5955119,195.753389 L62.520012,197.437691 L62.1459251,197.437691 L62.9408598,195.659816 C63.6754756,193.97084 64.3002552,192.236138 64.8112945,190.46655 C65.5893426,187.730626 66.1983848,184.94939 66.6349683,182.13861 C67.1493378,178.863577 67.4766639,175.167468 67.8507508,171.09707 C68.2248377,167.026672 68.6456855,162.488413 69.4873811,157.763008 C70.3540715,152.787637 71.6207278,147.890376 73.2750113,143.118933 C74.5298555,139.676765 75.965863,136.303444 77.5770111,133.013118 L78.0446198,132.264539 L78.4654676,131.51596 C78.9798371,130.53345 79.4942066,129.55094 80.055337,128.56843 C81.0726684,126.564143 81.9325475,124.483673 82.6271847,122.345868 C83.7552486,118.488856 84.2758607,114.479551 84.1702933,110.462178 C84.2104121,108.738661 84.0851424,107.01527 83.7962064,105.315697 L83.7962064,104.42676 C78.325185,75.7936161 30.8629052,53.7105378 14.0289932,35.6042851 C-4.34802743,16.2348054 0.608624443,6.87756887 0.608624443,6.87756887 C-0.420114625,8.84258854 19.5467755,21.3344993 21.1834058,22.270223 Z" id="Shape"></path>
            </g>
        </g>
    </g>
</svg>