<?xml version="1.0" encoding="UTF-8"?>
<svg width="54px" height="68px" viewBox="0 0 54 68" version="1.1" xmlns="http://www.w3.org/2000/svg" xmlns:xlink="http://www.w3.org/1999/xlink">
    <!-- Generator: Sketch 51.1 (57501) - http://www.bohemiancoding.com/sketch -->
    <title>Group 21@3x</title>
    <desc>Created with Sketch.</desc>
    <defs></defs>
    <g id="Page-1" stroke="none" stroke-width="1" fill="none" fill-rule="evenodd">
        <g id="inspect_mainpage" transform="translate(-909.000000, -2310.000000)" fill="#1A3966" fill-rule="nonzero">
            <g id="Group-21" transform="translate(909.000000, 2310.000000)">
                <path d="M7,4 C5.34314575,4 4,5.34314575 4,7 L4,61 C4,62.6568542 5.34314575,64 7,64 L47,64 C48.6568542,64 50,62.6568542 50,61 L50,7 C50,5.34314575 48.6568542,4 47,4 L7,4 Z M7,0 L47,0 C50.8659932,0 54,3.13400675 54,7 L54,61 C54,64.8659932 50.8659932,68 47,68 L7,68 C3.13400675,68 0,64.8659932 0,61 L0,7 C0,3.13400675 3.13400675,0 7,0 Z" id="Rectangle-9-Copy"></path>
                <polygon id="Line-3" points="2.5 11.25 2.5 9.25 51.5 9.25 51.5 11.25"></polygon>
                <polygon id="Line-3-Copy" points="2.5 18.25 2.5 16.25 51.5 16.25 51.5 18.25"></polygon>
                <polygon id="Line-3-Copy-2" points="2.5 25.25 2.5 23.25 51.5 23.25 51.5 25.25"></polygon>
                <polygon id="Line-3-Copy-3" points="2.5 32.25 2.5 30.25 51.5 30.25 51.5 32.25"></polygon>
                <polygon id="Line-3-Copy-4" points="2.5 39.25 2.5 37.25 51.5 37.25 51.5 39.25"></polygon>
                <polygon id="Line-3-Copy-5" points="2.5 46.25 2.5 44.25 51.5 44.25 51.5 46.25"></polygon>
                <polygon id="Line-3-Copy-6" points="2.5 53.25 2.5 51.25 51.5 51.25 51.5 53.25"></polygon>
                <polygon id="Line-3-Copy-7" points="2.5 60.25 2.5 58.25 51.5 58.25 51.5 60.25"></polygon>
            </g>
        </g>
    </g>
</svg>