<?xml version="1.0" encoding="UTF-8"?>
<svg width="58px" height="58px" viewBox="0 0 58 58" version="1.1" xmlns="http://www.w3.org/2000/svg" xmlns:xlink="http://www.w3.org/1999/xlink">
    <!-- Generator: Sketch 50.2 (55047) - http://www.bohemiancoding.com/sketch -->
    <title>Server</title>
    <desc>Created with Sketch.</desc>
    <defs></defs>
    <g id="Page-1" stroke="none" stroke-width="1" fill="none" fill-rule="evenodd">
        <g id="desktop_mainpage" transform="translate(-1064.000000, -2207.000000)" fill="#1A3966">
            <g id="Group-31" transform="translate(1027.000000, 2143.000000)">
                <path d="M91.7195622,82.2390453 L40.2804378,82.2390453 L40.2804378,71.112872 C40.2804378,69.0036319 42.001368,67.2855997 44.1108071,67.2855997 L87.8864569,67.2855997 C89.998632,67.2855997 91.7195622,69.0036319 91.7195622,71.112872 L91.7195622,82.2390453 Z M40.2804378,100.478091 L91.7195622,100.478091 L91.7195622,85.5219093 L40.2804378,85.5219093 L40.2804378,100.478091 Z M91.7195622,114.884392 C91.7195622,116.996368 89.998632,118.7144 87.8864569,118.7144 L44.1108071,118.7144 C42.001368,118.7144 40.2804378,116.996368 40.2804378,114.884392 L40.2804378,103.760955 L91.7195622,103.760955 L91.7195622,114.884392 Z M87.8864569,64 L44.1108071,64 C40.1901505,64 37,67.1925853 37,71.112872 L37,83.8804773 L37,102.119523 L37,114.884392 C37,118.807415 40.1901505,122 44.1108071,122 L87.8864569,122 C91.8098495,122 95,118.807415 95,114.884392 L95,102.119523 L95,83.8804773 L95,71.112872 C95,67.1925853 91.8098495,64 87.8864569,64 Z" id="Server"></path>
            </g>
        </g>
    </g>
</svg>