<?xml version="1.0" encoding="UTF-8"?>
<svg width="40px" height="65px" viewBox="0 0 40 65" version="1.1" xmlns="http://www.w3.org/2000/svg" xmlns:xlink="http://www.w3.org/1999/xlink">
    <!-- Generator: Sketch 50.2 (55047) - http://www.bohemiancoding.com/sketch -->
    <title>Phone</title>
    <desc>Created with Sketch.</desc>
    <defs></defs>
    <g id="Page-1" stroke="none" stroke-width="1" fill="none" fill-rule="evenodd">
        <g id="desktop_mainpage" transform="translate(-1529.000000, -2204.000000)" fill="#1A3966">
            <g id="Group-30" transform="translate(1482.000000, 2143.000000)">
                <path d="M70.030303,115.489127 C70.030303,117.184726 68.6727273,118.555309 67,118.555309 C65.3272727,118.555309 63.969697,117.184726 63.969697,115.489127 C63.969697,113.793528 65.3272727,112.422944 67,112.422944 C68.6727273,112.422944 70.030303,113.793528 70.030303,115.489127 Z M71.8484848,70.5020992 C71.8484848,71.5200717 71.0363636,72.3418086 70.030303,72.3418086 L63.969697,72.3418086 C62.9636364,72.3418086 62.1515152,71.5200717 62.1515152,70.5020992 C62.1515152,69.4841266 62.9636364,68.6654559 63.969697,68.6654559 L70.030303,68.6654559 C71.0363636,68.6654559 71.8484848,69.4841266 71.8484848,70.5020992 Z M83.3636364,118.027926 C83.3636364,120.395019 81.4606061,122.323647 79.1212121,122.323647 L54.8787879,122.323647 C52.5393939,122.323647 50.6363636,120.395019 50.6363636,118.027926 L50.6363636,68.969008 C50.6363636,66.6049814 52.5393939,64.6763527 54.8787879,64.6763527 L79.1212121,64.6763527 C81.4606061,64.6763527 83.3636364,66.6049814 83.3636364,68.969008 L83.3636364,118.027926 Z M79.1212121,61 L54.8787879,61 C50.5333333,61 47,64.5751686 47,68.969008 L47,118.027926 C47,122.424831 50.5333333,126 54.8787879,126 L79.1212121,126 C83.4666667,126 87,122.424831 87,118.027926 L87,68.969008 C87,64.5751686 83.4666667,61 79.1212121,61 Z" id="Phone"></path>
            </g>
        </g>
    </g>
</svg>