<?xml version="1.0" encoding="UTF-8"?>
<svg width="17px" height="17px" viewBox="0 0 17 17" version="1.1" xmlns="http://www.w3.org/2000/svg" xmlns:xlink="http://www.w3.org/1999/xlink">
    <!-- Generator: Sketch 50.2 (55047) - http://www.bohemiancoding.com/sketch -->
    <title>Exit full-screen</title>
    <desc>Created with Sketch.</desc>
    <defs></defs>
    <g id="Page-1" stroke="none" stroke-width="1" fill="none" fill-rule="evenodd">
        <g id="desktop_lakasok" transform="translate(-404.000000, -1880.000000)" fill="#50E3C2">
            <g id="Group-12" transform="translate(404.000000, 1871.000000)">
                <path d="M16.0220344,20.1335332 L11.1953164,20.1335332 C10.9084348,20.1335332 10.6752893,20.3666666 10.6752893,20.6535332 L10.6752893,25.4799999 C10.6752893,25.7668665 10.9084348,25.9999999 11.1953164,25.9999999 C11.482198,25.9999999 11.7144767,25.7668665 11.7144767,25.4799999 L11.7144767,21.1726666 L16.0220344,21.1726666 C16.308916,21.1726666 16.5420615,20.9403999 16.5420615,20.6535332 C16.5420615,20.3666666 16.308916,20.1335332 16.0220344,20.1335332 M5.34674512,20.0355999 L0.519160371,20.0355999 C0.231412052,20.0355999 0,20.2678666 0,20.5547332 C0,20.8415999 0.231412052,21.0747332 0.519160371,21.0747332 L4.82585132,21.0747332 L4.82585132,25.3820666 C4.82585132,25.6689332 5.05986351,25.9011999 5.34674512,25.9011999 C5.63362673,25.9011999 5.8667722,25.6689332 5.8667722,25.3820666 L5.8667722,20.5547332 C5.8667722,20.2678666 5.63362673,20.0355999 5.34674512,20.0355999 M5.44468355,9.35999996 C5.15780195,9.35999996 4.92378976,9.59313329 4.92378976,9.87999995 L4.92378976,14.1873333 L0.617965516,14.1873333 C0.330217197,14.1873333 0.097071722,14.4195999 0.097071722,14.7064666 C0.097071722,14.9933333 0.330217197,15.2264666 0.617965516,15.2264666 L5.44468355,15.2264666 C5.73156516,15.2264666 5.96471063,14.9933333 5.96471063,14.7064666 L5.96471063,9.87999995 C5.96471063,9.59313329 5.73156516,9.35999996 5.44468355,9.35999996 M10.7732277,14.8052666 L10.7732277,9.97793329 C10.7732277,9.69106662 11.0063732,9.45879996 11.2932548,9.45879996 C11.5801364,9.45879996 11.8132819,9.69106662 11.8132819,9.97793329 L11.8132819,14.2852666 L16.1199728,14.2852666 C16.4068544,14.2852666 16.6399999,14.5183999 16.6399999,14.8052666 C16.6399999,15.0921333 16.4068544,15.3243999 16.1199728,15.3243999 L11.2932548,15.3243999 C11.0063732,15.3243999 10.7732277,15.0921333 10.7732277,14.8052666" id="Exit-full-screen"></path>
            </g>
        </g>
    </g>
</svg>